<svg width="756" height="756"
    xmlns="http://www.w3.org/2000/svg"
    xmlns:xlink="http://www.w3.org/1999/xlink" overflow="hidden">
    <defs>
        <clipPath id="clip0">
            <rect x="0" y="0" width="756" height="756"/>
        </clipPath>
    </defs>
    <g clip-path="url(#clip0)">
        <rect x="0" y="0" width="756" height="756" fill="#0000"/>
        <path d="M0 163C-2.06884e-14 72.9776 72.7537-2.07521e-14 162.5-4.15041e-14 252.246-8.30083e-14 325 72.9776 325 163 325 253.022 252.246 326 162.5 326 72.7537 326-1.03442e-13 253.022 0 163Z" fill="#1890ff" fill-rule="evenodd" transform="matrix(-1 0 0 1 566 12)"/>
        <path d="M0 200.5C-2.55263e-14 89.7669 89.7669-2.55263e-14 200.5-5.10527e-14 311.233-1.02105e-13 401 89.7669 401 200.5 401 311.233 311.233 401 200.5 401 89.7669 401-1.27632e-13 311.233 0 200.5Z" fill="#1890ff" fill-rule="evenodd" transform="matrix(-1 0 0 1 411 99)"/>
        <path d="M0 162.5C-2.06884e-14 72.7537 72.7537-2.06884e-14 162.5-4.13768e-14 252.246-8.27537e-14 325 72.7537 325 162.5 325 252.246 252.246 325 162.5 325 72.7537 325-1.03442e-13 252.246 0 162.5Z" fill="#1890ff" fill-rule="evenodd" transform="matrix(-1 0 0 1 746 175)"/>
        <rect x="0" y="0" width="384" height="214" fill="#1890ff" transform="matrix(-1 0 0 1 587 286)"/>
        <path d="M177.505 535.044 200.203 545.211 113.062 739.762 90.3641 729.596Z" fill="#1890ff" fill-rule="evenodd"/>
        <path d="M302.522 535.044 325.22 545.211 238.079 739.762 215.381 729.596Z" fill="#1890ff" fill-rule="evenodd"/>
        <path d="M427.539 535.044 450.237 545.211 363.095 739.762 340.398 729.596Z" fill="#1890ff" fill-rule="evenodd"/>
        <path d="M552.556 535.044 575.253 545.211 488.112 739.762 465.415 729.596Z" fill="#1890ff" fill-rule="evenodd"/>
    </g>
</svg>